#define play_width 15
#define play_height 12

#pragma GCC diagnostic push
#pragma GCC diagnostic ignored "-Wnarrowing"
static char play_bits[] = {
   0x00, 0x00, 0x0c, 0x00, 0x3c, 0x00, 0xfc, 0x00, 0xfc, 0x03, 0xfc, 0x0f,
   0xfc, 0x0f, 0xfc, 0x03, 0xfc, 0x00, 0x3c, 0x00, 0x0c, 0x00, 0x00, 0x00};
#pragma GCC diagnostic pop
