#define addnode_width 21
#define addnode_height 16
static char addnode_bits[] = {
   0x00, 0x00, 0x00, 0x00, 0x0e, 0x00, 0x80, 0x31, 0x00, 0x60, 0xc0, 0x00,
   0x20, 0x84, 0x00, 0x10, 0x00, 0x01, 0x10, 0x04, 0x01, 0x08, 0x04, 0x02,
   0x08, 0x04, 0x02, 0x08, 0x04, 0x02, 0x10, 0x04, 0x01, 0x10, 0x04, 0x01,
   0x20, 0x84, 0x00, 0x60, 0xc0, 0x00, 0x80, 0x31, 0x00, 0x00, 0x0e, 0x00};
