#define back_width 20
#define back_height 13
static char back_bits[] = {
   0x00, 0x00, 0x00, 0x00, 0xc0, 0x00, 0x00, 0xf0, 0x00, 0x00, 0xfc, 0x00,
   0x00, 0xff, 0x00, 0xc0, 0xff, 0x00, 0xf0, 0xff, 0x00, 0xc0, 0xff, 0x00,
   0x00, 0xff, 0x00, 0x00, 0xfc, 0x00, 0x00, 0xf0, 0x00, 0x00, 0xc0, 0x00,
   0x00, 0x00, 0x00};
