#define cut_width 21
#define cut_height 16
static char cut_bits[] = {
   0x08, 0x00, 0x01, 0x08, 0x00, 0x01, 0x08, 0x00, 0x01, 0x10, 0xc0, 0x00,
   0x10, 0xc0, 0x00, 0x60, 0x20, 0x00, 0x60, 0x20, 0x00, 0x80, 0x10, 0x00,
   0x80, 0x10, 0x00, 0x00, 0x09, 0x00, 0x00, 0x09, 0x00, 0x00, 0x06, 0x00,
   0xe0, 0x79, 0x00, 0x10, 0xc9, 0x00, 0x90, 0xd0, 0x00, 0x60, 0x60, 0x00};
