#define ff_width 20
#define ff_height 13
static char ff_bits[] = {
   0x00, 0x00, 0x00, 0x08, 0x08, 0x00, 0x18, 0x18, 0x00, 0x38, 0x38, 0x00,
   0x78, 0x78, 0x00, 0xf8, 0xf8, 0x00, 0xf8, 0xf9, 0x01, 0xf8, 0xf8, 0x00,
   0x78, 0x78, 0x00, 0x38, 0x38, 0x00, 0x18, 0x18, 0x00, 0x08, 0x08, 0x00,
   0x00, 0x00, 0x00};
