#define play_width 20
#define play_height 13
static char play_bits[] = {
   0x00, 0x00, 0x00, 0x30, 0x00, 0x00, 0xf0, 0x00, 0x00, 0xf0, 0x03, 0x00,
   0xf0, 0x0f, 0x00, 0xf0, 0x3f, 0x00, 0xf0, 0xff, 0x00, 0xf0, 0x3f, 0x00,
   0xf0, 0x0f, 0x00, 0xf0, 0x03, 0x00, 0xf0, 0x00, 0x00, 0x30, 0x00, 0x00,
   0x00, 0x00, 0x00};
