#define select_width 21
#define select_height 16
static char select_bits[] = {
   0x03, 0x00, 0x00, 0x0f, 0x00, 0x00, 0x7e, 0x00, 0x00, 0xfc, 0x01, 0x00,
   0xfc, 0x0f, 0x00, 0xf8, 0x3f, 0x00, 0xf8, 0x1f, 0x00, 0xf0, 0x0f, 0x00,
   0xe0, 0x0f, 0x00, 0xe0, 0x13, 0x00, 0xc0, 0x20, 0x00, 0x40, 0xc0, 0x00,
   0x00, 0x80, 0x01, 0x00, 0x00, 0x07, 0x00, 0x00, 0x1e, 0x00, 0x00, 0x1c};
