#define stop_width 20
#define stop_height 13
static char stop_bits[] = {
   0x00, 0x00, 0x00, 0xe0, 0x7f, 0x00, 0xe0, 0x7f, 0x00, 0xe0, 0x7f, 0x00,
   0xe0, 0x7f, 0x00, 0xe0, 0x7f, 0x00, 0xe0, 0x7f, 0x00, 0xe0, 0x7f, 0x00,
   0xe0, 0x7f, 0x00, 0xe0, 0x7f, 0x00, 0xe0, 0x7f, 0x00, 0xe0, 0x7f, 0x00,
   0x00, 0x00, 0x00};
